<?xml version="1.0" encoding="utf-8"?>
<!-- Generator: Adobe Illustrator 25.1.0, SVG Export Plug-In . SVG Version: 6.00 Build 0)  -->
<svg version="1.1" id="Laag_1" xmlns="http://www.w3.org/2000/svg" xmlns:xlink="http://www.w3.org/1999/xlink" x="0px" y="0px"
	 viewBox="0 0 595.28 841.89" style="enable-background:new 0 0 595.28 841.89;" xml:space="preserve">
<g id="Outline" transform="translate(-1.928 -1.928)">
	<path id="Path_93" d="M397.73,352.8l-5.03,5.04l-9.24-9.24c41.13-56.19,28.93-135.09-27.27-176.22s-135.09-28.93-176.22,27.27
		s-28.93,135.09,27.27,176.22c44.35,32.46,104.61,32.46,148.96,0l9.24,9.24l-5.04,5.03l52.7,52.71
		c10.53,10.09,27.25,9.72,37.33-0.81c9.78-10.21,9.78-26.31,0-36.52L397.73,352.8z M166.06,274.3
		c0-63.97,51.86-115.84,115.83-115.84c63.97,0,115.84,51.86,115.84,115.83c0,63.97-51.86,115.84-115.83,115.84c0,0,0,0-0.01,0
		C217.93,390.13,166.07,338.27,166.06,274.3z M364.1,369.54c4.66-4.02,9.02-8.38,13.04-13.04l8.44,8.44l-13.03,13.04L364.1,369.54z
		 M431.75,440.5c-4.33,0.01-8.49-1.71-11.55-4.79l-45.57-45.58l23.09-23.09l45.59,45.58c6.38,6.38,6.38,16.72,0,23.1
		c-3.06,3.06-7.22,4.78-11.55,4.78L431.75,440.5z"/>
	<path id="Path_94" d="M281.9,168.54c-58.41,0-105.76,47.35-105.76,105.76s47.35,105.76,105.76,105.76s105.76-47.35,105.76-105.76
		l0,0C387.66,215.89,340.31,168.54,281.9,168.54z M281.9,370c-52.85-0.01-95.69-42.85-95.68-95.7c0.01-52.85,42.85-95.69,95.7-95.68
		c52.84,0.01,95.68,42.84,95.68,95.68c0.01,52.85-42.83,95.69-95.68,95.7C281.91,370,281.91,370,281.9,370z"/>
	<path id="Path_95" d="M347.37,294.45v-65.46c0-8.35-6.77-15.12-15.12-15.12l0,0H231.54c-8.35,0-15.12,6.77-15.12,15.12v65.46
		h-10.06v15.12c0,8.35,6.77,15.12,15.12,15.12c0,0,0,0,0,0h120.87c8.35,0,15.12-6.77,15.12-15.12l0,0v-15.12H347.37z M226.5,228.98
		c0-2.78,2.25-5.04,5.04-5.04h100.73c2.78,0,5.04,2.25,5.04,5.04v65.46H226.5V228.98z M347.37,309.56c0,2.78-2.25,5.04-5.04,5.04
		H221.47c-2.78,0-5.04-2.25-5.04-5.04v-5.04h130.94V309.56z"/>
	<path id="Path_96" d="M297,244.09h13.02l-23.1,23.1l-20.15-20.15l-28.74,28.74l7.13,7.12l21.62-21.62l20.15,20.15l30.22-30.22
		v13.02h10.08v-30.22H297V244.09z"/>
</g>
</svg>
