<?xml version="1.0" encoding="utf-8"?>
<!-- Generator: Adobe Illustrator 25.1.0, SVG Export Plug-In . SVG Version: 6.00 Build 0)  -->
<svg version="1.1" id="Laag_1" xmlns="http://www.w3.org/2000/svg" xmlns:xlink="http://www.w3.org/1999/xlink" x="0px" y="0px"
	 viewBox="0 0 841.89 595.28" style="enable-background:new 0 0 841.89 595.28;" xml:space="preserve">
<style type="text/css">
	.st0{fill:none;stroke:#000000;stroke-width:5;stroke-miterlimit:10;}
	.st1{fill:none;stroke:#000000;stroke-width:5;stroke-linecap:round;stroke-miterlimit:10;}
</style>
<g>
	<path class="st0" d="M454.59,390.16h-67.64c-4.54,0-8.21-3.68-8.21-8.21v-67.64c0-4.54,3.68-8.21,8.21-8.21h67.64
		c4.54,0,8.21,3.68,8.21,8.21v67.64C462.81,386.48,459.13,390.16,454.59,390.16z"/>
	<path class="st0" d="M410.29,381.3h-22.03c-1.48,0-2.68-1.2-2.68-2.68v-22.03c0-1.48,1.2-2.68,2.68-2.68h22.03
		c1.48,0,2.68,1.2,2.68,2.68v22.03C412.97,380.1,411.77,381.3,410.29,381.3z"/>
	<line class="st0" x1="378.74" y1="314.31" x2="462.81" y2="314.31"/>
	<line class="st1" x1="418.44" y1="329.37" x2="458.97" y2="329.37"/>
	<line class="st1" x1="418.44" y1="335.29" x2="445.8" y2="335.29"/>
	<line class="st1" x1="418.44" y1="341.71" x2="451.82" y2="341.71"/>
	<line class="st1" x1="418.44" y1="348.13" x2="438.71" y2="348.13"/>
	<line class="st1" x1="418.44" y1="354.54" x2="451.82" y2="354.54"/>
	<line class="st1" x1="418.44" y1="361.03" x2="458.97" y2="361.03"/>
	<line class="st1" x1="418.44" y1="367.53" x2="445.8" y2="367.53"/>
	<line class="st1" x1="418.44" y1="374.02" x2="451.82" y2="374.02"/>
	<path class="st0" d="M410.29,349.5h-22.03c-1.48,0-2.68-1.2-2.68-2.68v-22.03c0-1.48,1.2-2.68,2.68-2.68h22.03
		c1.48,0,2.68,1.2,2.68,2.68v22.03C412.97,348.3,411.77,349.5,410.29,349.5z"/>
	<line class="st1" x1="491.2" y1="277.14" x2="471" y2="297.34"/>
	<line class="st1" x1="471" y1="284.39" x2="471" y2="297.34"/>
	<line class="st1" x1="483.82" y1="297.34" x2="471" y2="297.34"/>
	<line class="st1" x1="349.35" y1="280.76" x2="369.54" y2="300.96"/>
	<line class="st1" x1="356.59" y1="300.96" x2="369.54" y2="300.96"/>
	<line class="st1" x1="369.54" y1="288.14" x2="369.54" y2="300.96"/>
	<line class="st1" x1="352.07" y1="416.27" x2="372.26" y2="396.08"/>
	<line class="st1" x1="372.26" y1="409.03" x2="372.26" y2="396.08"/>
	<line class="st1" x1="359.45" y1="396.08" x2="372.26" y2="396.08"/>
	<line class="st1" x1="491.2" y1="412.65" x2="471" y2="392.46"/>
	<line class="st1" x1="483.95" y1="392.46" x2="471" y2="392.46"/>
	<line class="st1" x1="471" y1="405.27" x2="471" y2="392.46"/>
</g>
</svg>
