<?xml version="1.0" encoding="UTF-8"?>
<svg xmlns="http://www.w3.org/2000/svg" xmlns:xlink="http://www.w3.org/1999/xlink" width="212pt" height="300pt" viewBox="0 0 212 300" version="1.1">
<g id="surface1">
<path style=" stroke:none;fill-rule:nonzero;fill:rgb(0%,0%,0%);fill-opacity:1;" d="M 140.957031 125.046875 L 139.167969 126.839844 L 135.875 123.550781 C 150.523438 103.539062 146.179688 75.441406 126.164062 60.792969 C 106.148438 46.144531 78.054688 50.488281 63.40625 70.503906 C 48.757812 90.519531 53.105469 118.613281 73.117188 133.261719 C 88.914062 144.820312 110.375 144.820312 126.167969 133.261719 L 129.460938 136.550781 L 127.664062 138.34375 L 146.433594 157.113281 C 150.183594 160.707031 156.136719 160.574219 159.726562 156.824219 C 163.210938 153.191406 163.210938 147.457031 159.726562 143.820312 Z M 58.453125 97.089844 C 58.453125 74.308594 76.921875 55.835938 99.703125 55.835938 C 122.484375 55.835938 140.957031 74.304688 140.957031 97.085938 C 140.957031 119.867188 122.488281 138.339844 99.707031 138.339844 C 99.707031 138.339844 99.707031 138.339844 99.703125 138.339844 C 76.925781 138.339844 58.457031 119.871094 58.453125 97.089844 Z M 128.980469 131.007812 C 130.640625 129.574219 132.195312 128.023438 133.625 126.363281 L 136.632812 129.367188 L 131.992188 134.011719 Z M 153.074219 156.277344 C 151.53125 156.28125 150.050781 155.667969 148.960938 154.570312 L 132.730469 138.339844 L 140.957031 130.117188 L 157.191406 146.347656 C 159.464844 148.621094 159.464844 152.304688 157.191406 154.574219 C 156.101562 155.664062 154.621094 156.277344 153.078125 156.277344 Z M 153.074219 156.277344 "/>
<path style=" stroke:none;fill-rule:nonzero;fill:rgb(0%,0%,0%);fill-opacity:1;" d="M 99.707031 59.425781 C 78.90625 59.425781 62.042969 76.289062 62.042969 97.089844 C 62.042969 117.890625 78.90625 134.753906 99.707031 134.753906 C 120.507812 134.753906 137.371094 117.890625 137.371094 97.089844 C 137.371094 76.289062 120.507812 59.425781 99.707031 59.425781 Z M 99.707031 131.171875 C 80.886719 131.167969 65.628906 115.910156 65.632812 97.089844 C 65.636719 78.269531 80.894531 63.011719 99.714844 63.015625 C 118.53125 63.019531 133.789062 78.269531 133.789062 97.089844 C 133.792969 115.910156 118.535156 131.167969 99.714844 131.171875 C 99.710938 131.171875 99.710938 131.171875 99.707031 131.171875 Z M 99.707031 131.171875 "/>
<path style=" stroke:none;fill-rule:nonzero;fill:rgb(0%,0%,0%);fill-opacity:1;" d="M 123.023438 104.265625 L 123.023438 80.953125 C 123.023438 77.980469 120.613281 75.570312 117.640625 75.570312 L 81.773438 75.570312 C 78.800781 75.570312 76.386719 77.980469 76.386719 80.953125 L 76.386719 104.265625 L 72.804688 104.265625 L 72.804688 109.648438 C 72.804688 112.625 75.214844 115.035156 78.191406 115.035156 L 121.234375 115.035156 C 124.210938 115.035156 126.621094 112.625 126.621094 109.648438 L 126.621094 104.265625 Z M 79.976562 80.949219 C 79.976562 79.960938 80.777344 79.15625 81.773438 79.15625 L 117.644531 79.15625 C 118.636719 79.15625 119.441406 79.957031 119.441406 80.949219 L 119.441406 104.261719 L 79.976562 104.261719 Z M 123.023438 109.644531 C 123.023438 110.636719 122.222656 111.441406 121.230469 111.441406 L 78.1875 111.441406 C 77.195312 111.441406 76.390625 110.640625 76.390625 109.644531 L 76.390625 107.851562 L 123.023438 107.851562 Z M 123.023438 109.644531 "/>
<path style=" stroke:none;fill-rule:nonzero;fill:rgb(0%,0%,0%);fill-opacity:1;" d="M 105.085938 86.332031 L 109.722656 86.332031 L 101.496094 94.558594 L 94.320312 87.382812 L 84.085938 97.617188 L 86.625 100.152344 L 94.324219 92.453125 L 101.5 99.628906 L 112.261719 88.867188 L 112.261719 93.503906 L 115.851562 93.503906 L 115.851562 82.742188 L 105.085938 82.742188 Z M 105.085938 86.332031 "/>
</g>
</svg>
