<svg id="Laag_1" data-name="Laag 1" xmlns="http://www.w3.org/2000/svg" viewBox="0 0 343 343"><defs><style>.cls-1{fill:#36a9e1;}.cls-2{fill:#fff;}</style></defs><circle class="cls-1" cx="171.5" cy="171.5" r="171.5"/><g id="surface1"><path class="cls-2" d="M420.14,391.25h38.55L444.28,264.44a10.74,10.74,0,1,0-14.44-4.72,10.84,10.84,0,0,0,4.73,4.72Z" transform="translate(-267 -108)"/><path class="cls-2" d="M418,410.3h42.9l-1.34-11.86H419.28Z" transform="translate(-267 -108)"/><path class="cls-2" d="M449,267.69c12.63,8.76,51.4,33.09,87.44,30.13l.16-.39c-22.16-28.62-66.31-40.68-81.29-44.09a13.88,13.88,0,0,1,0,1.58A16,16,0,0,1,449,267.69Z" transform="translate(-267 -108)"/><path class="cls-2" d="M429.27,267.38a15.76,15.76,0,0,1-5.67-14.57c-15.12,2.75-59.74,12.94-83.2,40.58l.15.39C376.52,298.18,416.28,275.49,429.27,267.38Z" transform="translate(-267 -108)"/><path class="cls-2" d="M439.41,238.94a15.83,15.83,0,0,1,7.81,2.06c2.91-15.08,9.72-60.35-7.62-92.3h-.41c-17.25,31.89-10.54,77.17-7.63,92.3A16,16,0,0,1,439.41,238.94Z" transform="translate(-267 -108)"/></g></svg>